<svg xmlns="http://www.w3.org/2000/svg" xmlns:xlink="http://www.w3.org/1999/xlink" width="500" zoomAndPan="magnify" viewBox="0 0 375 374.999991" height="500" preserveAspectRatio="xMidYMid meet" version="1.0"><defs><clipPath id="92f6643908"><path d="M 158 104.636719 L 188 104.636719 L 188 255 L 158 255 Z M 158 104.636719 " clip-rule="nonzero"/></clipPath><clipPath id="aa3fdb56a5"><path d="M 224 104.636719 L 254 104.636719 L 254 255 L 224 255 Z M 224 104.636719 " clip-rule="nonzero"/></clipPath></defs><path fill="#ed5b2d" d="M 321.414062 191.683594 L 321.414062 173.386719 C 316.792969 173.199219 313.28125 172.277344 310.878906 170.429688 C 308.476562 168.582031 307 165.992188 306.074219 162.480469 C 305.148438 158.96875 304.78125 153.058594 304.78125 144.925781 C 304.78125 136.238281 304.410156 129.957031 303.488281 126.074219 C 302.5625 122.195312 301.085938 119.050781 298.683594 116.464844 C 296.277344 114.0625 293.136719 112.214844 289.257812 110.921875 C 285.375 109.8125 280.015625 109.070312 273.179688 109.070312 L 269.113281 109.070312 L 269.113281 127.367188 C 275.949219 127.367188 280.199219 128.105469 282.050781 129.402344 C 283.898438 130.695312 284.636719 133.835938 284.636719 138.457031 C 284.636719 152.6875 285.558594 162.667969 287.222656 168.394531 C 288.886719 174.125 292.953125 178.746094 299.050781 182.441406 C 294.429688 185.027344 290.734375 188.726562 288.332031 193.898438 C 285.929688 198.890625 284.636719 209.792969 284.636719 226.609375 C 284.636719 230.675781 284.082031 233.078125 282.972656 234.375 C 281.863281 235.480469 280.570312 236.40625 279.277344 236.960938 C 277.984375 237.515625 274.65625 237.699219 269.113281 237.699219 L 269.113281 255.996094 L 273.179688 255.996094 C 283.527344 255.996094 290.367188 254.703125 294.0625 252.300781 C 297.757812 249.710938 300.34375 246.941406 302.007812 243.613281 C 303.671875 240.285156 304.597656 232.710938 304.597656 220.511719 C 304.597656 212.378906 304.964844 206.464844 305.890625 202.957031 C 306.8125 199.445312 308.292969 196.671875 310.695312 194.824219 C 313.097656 192.976562 316.609375 191.867188 321.230469 191.683594 Z M 90.402344 191.683594 C 95.019531 191.867188 98.53125 192.976562 100.933594 194.824219 C 103.335938 196.671875 104.816406 199.257812 105.738281 202.769531 C 106.664062 206.28125 107.035156 212.195312 107.035156 220.511719 C 107.035156 232.339844 107.957031 240.101562 109.621094 243.613281 C 111.285156 247.125 114.242188 250.082031 118.121094 252.484375 C 122.003906 254.886719 128.839844 255.996094 138.636719 255.996094 L 142.703125 255.996094 L 142.703125 237.699219 C 136.234375 237.699219 132.167969 236.960938 130.136719 235.480469 C 128.101562 234.003906 127.179688 231.046875 127.179688 226.609375 C 127.179688 212.011719 126.253906 201.847656 124.40625 196.117188 C 122.558594 190.386719 118.675781 185.953125 112.949219 182.625 C 119.230469 178.929688 123.113281 174.125 124.777344 168.210938 C 126.4375 162.296875 127.179688 152.503906 127.179688 138.640625 C 127.179688 133.835938 128.101562 130.878906 129.949219 129.585938 C 131.796875 128.292969 136.050781 127.554688 142.703125 127.554688 L 142.703125 109.257812 L 138.636719 109.257812 C 129.765625 109.257812 123.113281 110.367188 118.675781 112.582031 C 114.242188 114.800781 111.101562 118.128906 109.621094 122.5625 C 107.957031 127 107.21875 134.390625 107.21875 144.925781 C 107.21875 153.058594 106.847656 158.785156 105.925781 162.296875 C 105 165.808594 103.523438 168.582031 101.121094 170.429688 C 98.71875 172.277344 95.207031 173.386719 90.585938 173.570312 L 90.585938 191.867188 Z M 90.402344 191.683594 " fill-opacity="1" fill-rule="nonzero"/><g clip-path="url(#92f6643908)"><path fill="#ffce6d" d="M 165.433594 246.941406 L 179.847656 246.941406 C 183.730469 246.941406 187.054688 250.082031 187.054688 254.148438 L 187.054688 111.84375 C 187.054688 107.964844 183.914062 104.636719 179.847656 104.636719 L 165.433594 104.636719 C 161.554688 104.636719 158.226562 107.777344 158.226562 111.84375 L 158.226562 254.148438 C 158.226562 250.265625 161.367188 246.941406 165.433594 246.941406 Z M 165.433594 246.941406 " fill-opacity="1" fill-rule="evenodd"/></g><path fill="#f6f6e9" d="M 199.4375 245.09375 L 213.855469 245.09375 C 217.734375 245.09375 221.0625 248.234375 221.0625 252.300781 L 221.0625 144.742188 C 221.0625 140.859375 217.917969 137.53125 213.855469 137.53125 L 199.4375 137.53125 C 195.558594 137.53125 192.230469 140.675781 192.230469 144.742188 L 192.230469 252.300781 C 192.230469 256.179688 195.371094 245.09375 199.4375 245.09375 Z M 199.4375 245.09375 " fill-opacity="1" fill-rule="evenodd"/><g clip-path="url(#aa3fdb56a5)"><path fill="#ffce6d" d="M 232.148438 246.941406 L 246.566406 246.941406 C 250.445312 246.941406 253.773438 250.082031 253.773438 254.148438 L 253.773438 111.84375 C 253.773438 107.964844 250.632812 104.636719 246.566406 104.636719 L 232.148438 104.636719 C 228.269531 104.636719 224.941406 107.777344 224.941406 111.84375 L 224.941406 254.148438 C 224.941406 250.265625 228.085938 246.941406 232.148438 246.941406 Z M 232.148438 246.941406 " fill-opacity="1" fill-rule="evenodd"/></g></svg>